# xmcd
#
# Track frame offsets:
#	150
#	12928
#	38570
#	53883
#	80951
#	108521
#	128391
#	150477
#	174309
#	202903
#	222328
#	243658
#	270035
#
# Disc length: 3879 seconds
#
# Revision: 0
# Processed by: cddbd v1.5.1PL0 Copyright (c) Steve Scherf et al.
# Submitted via: audiograbber 1.81.03
#
DISCID=a00f250d
DTITLE=DJ Smile - Inside Your Self
DYEAR=2003
DGENRE=
TTITLE0=Mix  1
TTITLE1=Mix  2
TTITLE2=Mix  3
TTITLE3=Mix  4
TTITLE4=Mix  5
TTITLE5=Mix  6
TTITLE6=Mix  7
TTITLE7=Mix  8
TTITLE8=Mix  9
TTITLE9=Mix 10
TTITLE10=Mix 11
TTITLE11=Mix 12
TTITLE12=Mix 13
EXTD=www.TRUBA.nm.RU
EXTT0=
EXTT1=
EXTT2=
EXTT3=
EXTT4=
EXTT5=
EXTT6=
EXTT7=
EXTT8=
EXTT9=
EXTT10=
EXTT11=
EXTT12=
PLAYORDER=
